<svg width="269" height="43" viewBox="0 0 269 43" fill="none" xmlns="http://www.w3.org/2000/svg">
<path d="M19.96 27.04H9.48L7.8 32H0.64L10.8 3.92H18.72L28.88 32H21.64L19.96 27.04ZM18.2 21.76L14.72 11.48L11.28 21.76H18.2ZM38.8122 12.84C39.4522 11.8 40.3722 10.96 41.5722 10.32C42.7722 9.68 44.1455 9.36 45.6922 9.36C47.5322 9.36 49.1989 9.82667 50.6922 10.76C52.1855 11.6933 53.3589 13.0267 54.2122 14.76C55.0922 16.4933 55.5322 18.5067 55.5322 20.8C55.5322 23.0933 55.0922 25.12 54.2122 26.88C53.3589 28.6133 52.1855 29.96 50.6922 30.92C49.1989 31.8533 47.5322 32.32 45.6922 32.32C44.1189 32.32 42.7455 32.0133 41.5722 31.4C40.3989 30.76 39.4789 29.92 38.8122 28.88V32H31.9722V2.4H38.8122V12.84ZM48.5722 20.8C48.5722 19.0933 48.0922 17.76 47.1322 16.8C46.1989 15.8133 45.0389 15.32 43.6522 15.32C42.2922 15.32 41.1322 15.8133 40.1722 16.8C39.2389 17.7867 38.7722 19.1333 38.7722 20.84C38.7722 22.5467 39.2389 23.8933 40.1722 24.88C41.1322 25.8667 42.2922 26.36 43.6522 26.36C45.0122 26.36 46.1722 25.8667 47.1322 24.88C48.0922 23.8667 48.5722 22.5067 48.5722 20.8ZM69.2806 32.32C67.094 32.32 65.1206 31.8533 63.3606 30.92C61.6273 29.9867 60.254 28.6533 59.2406 26.92C58.254 25.1867 57.7606 23.16 57.7606 20.84C57.7606 18.5467 58.2673 16.5333 59.2806 14.8C60.294 13.04 61.6806 11.6933 63.4406 10.76C65.2006 9.82667 67.174 9.36 69.3606 9.36C71.5473 9.36 73.5206 9.82667 75.2806 10.76C77.0406 11.6933 78.4273 13.04 79.4406 14.8C80.454 16.5333 80.9606 18.5467 80.9606 20.84C80.9606 23.1333 80.4406 25.16 79.4006 26.92C78.3873 28.6533 76.9873 29.9867 75.2006 30.92C73.4406 31.8533 71.4673 32.32 69.2806 32.32ZM69.2806 26.4C70.5873 26.4 71.694 25.92 72.6006 24.96C73.534 24 74.0006 22.6267 74.0006 20.84C74.0006 19.0533 73.5473 17.68 72.6406 16.72C71.7606 15.76 70.6673 15.28 69.3606 15.28C68.0273 15.28 66.9206 15.76 66.0406 16.72C65.1606 17.6533 64.7206 19.0267 64.7206 20.84C64.7206 22.6267 65.1473 24 66.0006 24.96C66.8806 25.92 67.974 26.4 69.2806 26.4ZM106.629 9.68V32H99.7894V28.96C99.096 29.9467 98.1494 30.7467 96.9494 31.36C95.776 31.9467 94.4694 32.24 93.0294 32.24C91.3227 32.24 89.816 31.8667 88.5094 31.12C87.2027 30.3467 86.1894 29.24 85.4694 27.8C84.7494 26.36 84.3894 24.6667 84.3894 22.72V9.68H91.1894V21.8C91.1894 23.2933 91.576 24.4533 92.3494 25.28C93.1227 26.1067 94.1627 26.52 95.4694 26.52C96.8027 26.52 97.856 26.1067 98.6294 25.28C99.4027 24.4533 99.7894 23.2933 99.7894 21.8V9.68H106.629ZM123.983 26.2V32H120.503C118.023 32 116.089 31.4 114.703 30.2C113.316 28.9733 112.623 26.9867 112.623 24.24V15.36H109.903V9.68H112.623V4.24H119.463V9.68H123.943V15.36H119.463V24.32C119.463 24.9867 119.623 25.4667 119.943 25.76C120.263 26.0533 120.796 26.2 121.543 26.2H123.983ZM168.069 3.92V32H161.229V15.16L154.949 32H149.429L143.109 15.12V32H136.269V3.92H144.349L152.229 23.36L160.029 3.92H168.069ZM195.788 9.68L181.788 42.6H174.428L179.548 31.24L170.468 9.68H178.108L183.268 23.64L188.388 9.68H195.788ZM207.341 32.32C205.395 32.32 203.661 31.9867 202.141 31.32C200.621 30.6533 199.421 29.7467 198.541 28.6C197.661 27.4267 197.168 26.12 197.061 24.68H203.821C203.901 25.4533 204.261 26.08 204.901 26.56C205.541 27.04 206.328 27.28 207.261 27.28C208.115 27.28 208.768 27.12 209.221 26.8C209.701 26.4533 209.941 26.0133 209.941 25.48C209.941 24.84 209.608 24.3733 208.941 24.08C208.275 23.76 207.195 23.4133 205.701 23.04C204.101 22.6667 202.768 22.28 201.701 21.88C200.635 21.4533 199.715 20.8 198.941 19.92C198.168 19.0133 197.781 17.8 197.781 16.28C197.781 15 198.128 13.84 198.821 12.8C199.541 11.7333 200.581 10.8933 201.941 10.28C203.328 9.66666 204.968 9.36 206.861 9.36C209.661 9.36 211.861 10.0533 213.461 11.44C215.088 12.8267 216.021 14.6667 216.261 16.96H209.941C209.835 16.1867 209.488 15.5733 208.901 15.12C208.341 14.6667 207.595 14.44 206.661 14.44C205.861 14.44 205.248 14.6 204.821 14.92C204.395 15.2133 204.181 15.6267 204.181 16.16C204.181 16.8 204.515 17.28 205.181 17.6C205.875 17.92 206.941 18.24 208.381 18.56C210.035 18.9867 211.381 19.4133 212.421 19.84C213.461 20.24 214.368 20.9067 215.141 21.84C215.941 22.7467 216.355 23.9733 216.381 25.52C216.381 26.8267 216.008 28 215.261 29.04C214.541 30.0533 213.488 30.8533 212.101 31.44C210.741 32.0267 209.155 32.32 207.341 32.32ZM241.606 20.48C241.606 21.12 241.566 21.7867 241.486 22.48H226.006C226.113 23.8667 226.553 24.9333 227.326 25.68C228.126 26.4 229.099 26.76 230.246 26.76C231.953 26.76 233.139 26.04 233.806 24.6H241.086C240.713 26.0667 240.033 27.3867 239.046 28.56C238.086 29.7333 236.873 30.6533 235.406 31.32C233.939 31.9867 232.299 32.32 230.486 32.32C228.299 32.32 226.353 31.8533 224.646 30.92C222.939 29.9867 221.606 28.6533 220.646 26.92C219.686 25.1867 219.206 23.16 219.206 20.84C219.206 18.52 219.673 16.4933 220.606 14.76C221.566 13.0267 222.899 11.6933 224.606 10.76C226.313 9.82667 228.273 9.36 230.486 9.36C232.646 9.36 234.566 9.81333 236.246 10.72C237.926 11.6267 239.233 12.92 240.166 14.6C241.126 16.28 241.606 18.24 241.606 20.48ZM234.606 18.68C234.606 17.5067 234.206 16.5733 233.406 15.88C232.606 15.1867 231.606 14.84 230.406 14.84C229.259 14.84 228.286 15.1733 227.486 15.84C226.713 16.5067 226.233 17.4533 226.046 18.68H234.606ZM252.054 2.4V32H245.214V2.4H252.054ZM268.211 15.36H264.531V32H257.691V15.36H255.211V9.68H257.691V9.04C257.691 6.29333 258.478 4.21333 260.051 2.8C261.625 1.36 263.931 0.639998 266.971 0.639998C267.478 0.639998 267.851 0.653332 268.091 0.679998V6.48C266.785 6.4 265.865 6.58667 265.331 7.04C264.798 7.49333 264.531 8.30666 264.531 9.48V9.68H268.211V15.36Z" fill="#172B4D"/>
</svg>
